<svg width="785" height="191" viewBox="0 0 785 191" fill="none" xmlns="http://www.w3.org/2000/svg">
<path d="M259.589 132.53C250.059 132.53 242.188 129.363 235.975 123.03C229.763 116.697 226.657 108.886 226.657 99.5974C226.657 90.2484 229.763 82.4376 235.975 76.1647C242.188 69.8316 250.059 66.665 259.589 66.665C265.319 66.665 270.597 68.0221 275.422 70.7363C280.308 73.3902 284.107 77.0091 286.822 81.5931L276.055 87.8358C274.487 85.001 272.255 82.7994 269.36 81.2312C266.465 79.6027 263.208 78.7884 259.589 78.7884C253.437 78.7884 248.461 80.7186 244.661 84.5788C240.921 88.439 239.052 93.4452 239.052 99.5974C239.052 105.689 240.921 110.665 244.661 114.526C248.461 118.386 253.437 120.316 259.589 120.316C263.208 120.316 266.465 119.532 269.36 117.964C272.316 116.335 274.547 114.133 276.055 111.359L286.822 117.602C284.107 122.186 280.338 125.835 275.512 128.549C270.687 131.203 265.379 132.53 259.589 132.53ZM293.55 131.263V65.2174H305.221V131.263H293.55ZM320.587 80.5979C318.657 80.5979 316.969 79.9043 315.521 78.517C314.134 77.0694 313.44 75.3806 313.44 73.4505C313.44 71.5204 314.134 69.8316 315.521 68.384C316.969 66.9364 318.657 66.2126 320.587 66.2126C322.578 66.2126 324.267 66.9364 325.654 68.384C327.102 69.8316 327.825 71.5204 327.825 73.4505C327.825 75.3806 327.102 77.0694 325.654 78.517C324.267 79.9043 322.578 80.5979 320.587 80.5979ZM314.797 131.263V86.0263H326.468V131.263H314.797ZM361.196 84.7597C366.142 84.7597 370.214 86.4184 373.41 89.7358C376.667 93.0531 378.296 97.6371 378.296 103.488V131.263H366.625V104.935C366.625 101.92 365.811 99.6276 364.182 98.0593C362.554 96.4308 360.382 95.6166 357.668 95.6166C354.652 95.6166 352.24 96.5514 350.43 98.4212C348.621 100.291 347.716 103.096 347.716 106.835V131.263H336.045V86.0263H347.716V91.0929C350.551 86.8708 355.044 84.7597 361.196 84.7597ZM392.946 80.5979C391.016 80.5979 389.327 79.9043 387.879 78.517C386.492 77.0694 385.799 75.3806 385.799 73.4505C385.799 71.5204 386.492 69.8316 387.879 68.384C389.327 66.9364 391.016 66.2126 392.946 66.2126C394.936 66.2126 396.625 66.9364 398.013 68.384C399.46 69.8316 400.184 71.5204 400.184 73.4505C400.184 75.3806 399.46 77.0694 398.013 78.517C396.625 79.9043 394.936 80.5979 392.946 80.5979ZM387.156 131.263V86.0263H398.827V131.263H387.156ZM429.936 132.53C423.12 132.53 417.42 130.238 412.836 125.654C408.313 121.07 406.051 115.4 406.051 108.645C406.051 101.889 408.313 96.2197 412.836 91.6357C417.42 87.0517 423.12 84.7597 429.936 84.7597C434.339 84.7597 438.35 85.8152 441.969 87.9263C445.588 90.0373 448.332 92.8722 450.202 96.4308L440.16 102.312C439.255 100.442 437.868 98.9641 435.998 97.8784C434.188 96.7927 432.138 96.2499 429.846 96.2499C426.347 96.2499 423.452 97.426 421.16 99.7783C418.868 102.07 417.722 105.026 417.722 108.645C417.722 112.203 418.868 115.159 421.16 117.511C423.452 119.803 426.347 120.949 429.846 120.949C432.198 120.949 434.279 120.436 436.088 119.411C437.958 118.325 439.345 116.848 440.25 114.978L450.383 120.768C448.393 124.327 445.588 127.192 441.969 129.363C438.35 131.474 434.339 132.53 429.936 132.53ZM489.123 86.0263H500.794V131.263H489.123V125.925C485.625 130.328 480.709 132.53 474.376 132.53C468.344 132.53 463.157 130.238 458.814 125.654C454.532 121.009 452.391 115.34 452.391 108.645C452.391 101.95 454.532 96.3102 458.814 91.7262C463.157 87.0819 468.344 84.7597 474.376 84.7597C480.709 84.7597 485.625 86.9612 489.123 91.3643V86.0263ZM467.59 117.873C469.943 120.225 472.928 121.402 476.547 121.402C480.166 121.402 483.152 120.225 485.504 117.873C487.917 115.46 489.123 112.384 489.123 108.645C489.123 104.905 487.917 101.859 485.504 99.5069C483.152 97.0943 480.166 95.888 476.547 95.888C472.928 95.888 469.943 97.0943 467.59 99.5069C465.238 101.859 464.062 104.905 464.062 108.645C464.062 112.384 465.238 115.46 467.59 117.873ZM520.685 98.8736C520.685 100.08 521.469 101.075 523.037 101.859C524.666 102.583 526.626 103.246 528.918 103.85C531.21 104.393 533.502 105.116 535.794 106.021C538.086 106.865 540.016 108.313 541.584 110.364C543.213 112.414 544.027 114.978 544.027 118.054C544.027 122.698 542.278 126.287 538.779 128.82C535.341 131.293 531.029 132.53 525.842 132.53C516.553 132.53 510.22 128.941 506.842 121.763L516.975 116.064C518.302 119.984 521.258 121.944 525.842 121.944C530.004 121.944 532.084 120.648 532.084 118.054C532.084 116.848 531.27 115.883 529.642 115.159C528.073 114.375 526.143 113.681 523.851 113.078C521.559 112.475 519.267 111.721 516.975 110.816C514.683 109.911 512.723 108.494 511.095 106.564C509.526 104.573 508.742 102.1 508.742 99.145C508.742 94.6817 510.371 91.1833 513.628 88.6501C516.945 86.0565 521.047 84.7597 525.932 84.7597C529.611 84.7597 532.959 85.6041 535.975 87.293C538.991 88.9215 541.373 91.2738 543.122 94.3499L533.17 99.7783C531.723 96.7022 529.31 95.1642 525.932 95.1642C524.424 95.1642 523.158 95.4959 522.132 96.1594C521.167 96.8229 520.685 97.7276 520.685 98.8736ZM611.195 98.4212C616.744 101.618 619.518 106.443 619.518 112.897C619.518 118.265 617.618 122.668 613.818 126.106C610.018 129.544 605.344 131.263 599.795 131.263H572.924V67.9316H597.895C603.323 67.9316 607.877 69.6204 611.556 72.9981C615.296 76.3155 617.166 80.5678 617.166 85.7549C617.166 91.0024 615.175 95.2245 611.195 98.4212ZM597.895 79.6027H585.41V93.5357H597.895C599.825 93.5357 601.423 92.8722 602.69 91.5452C604.017 90.2183 604.68 88.5596 604.68 86.5692C604.68 84.5788 604.047 82.9201 602.78 81.5931C601.514 80.2662 599.885 79.6027 597.895 79.6027ZM599.795 119.592C601.906 119.592 603.655 118.898 605.042 117.511C606.43 116.064 607.123 114.254 607.123 112.083C607.123 109.972 606.43 108.223 605.042 106.835C603.655 105.388 601.906 104.664 599.795 104.664H585.41V119.592H599.795ZM637.726 93.8071C638.811 90.9119 640.591 88.7406 643.064 87.293C645.597 85.8454 648.402 85.1216 651.478 85.1216V98.1498C647.919 97.7276 644.722 98.4514 641.887 100.321C639.113 102.191 637.726 105.297 637.726 109.64V131.263H626.055V86.0263H637.726V93.8071ZM689.899 86.0263H701.57V131.263H689.899V125.925C686.401 130.328 681.485 132.53 675.152 132.53C669.12 132.53 663.933 130.238 659.59 125.654C655.308 121.009 653.167 115.34 653.167 108.645C653.167 101.95 655.308 96.3102 659.59 91.7262C663.933 87.0819 669.12 84.7597 675.152 84.7597C681.485 84.7597 686.401 86.9612 689.899 91.3643V86.0263ZM668.366 117.873C670.719 120.225 673.704 121.402 677.323 121.402C680.942 121.402 683.928 120.225 686.28 117.873C688.693 115.46 689.899 112.384 689.899 108.645C689.899 104.905 688.693 101.859 686.28 99.5069C683.928 97.0943 680.942 95.888 677.323 95.888C673.704 95.888 670.719 97.0943 668.366 99.5069C666.014 101.859 664.838 104.905 664.838 108.645C664.838 112.384 666.014 115.46 668.366 117.873ZM721.461 98.8736C721.461 100.08 722.245 101.075 723.813 101.859C725.441 102.583 727.402 103.246 729.694 103.85C731.986 104.393 734.278 105.116 736.57 106.021C738.862 106.865 740.792 108.313 742.36 110.364C743.988 112.414 744.803 114.978 744.803 118.054C744.803 122.698 743.054 126.287 739.555 128.82C736.117 131.293 731.805 132.53 726.618 132.53C717.329 132.53 710.996 128.941 707.618 121.763L717.751 116.064C719.078 119.984 722.034 121.944 726.618 121.944C730.779 121.944 732.86 120.648 732.86 118.054C732.86 116.848 732.046 115.883 730.417 115.159C728.849 114.375 726.919 113.681 724.627 113.078C722.335 112.475 720.043 111.721 717.751 110.816C715.459 109.911 713.499 108.494 711.87 106.564C710.302 104.573 709.518 102.1 709.518 99.145C709.518 94.6817 711.147 91.1833 714.404 88.6501C717.721 86.0565 721.822 84.7597 726.708 84.7597C730.387 84.7597 733.735 85.6041 736.751 87.293C739.766 88.9215 742.149 91.2738 743.898 94.3499L733.946 99.7783C732.498 96.7022 730.086 95.1642 726.708 95.1642C725.2 95.1642 723.933 95.4959 722.908 96.1594C721.943 96.8229 721.461 97.7276 721.461 98.8736ZM756.993 80.5979C755.063 80.5979 753.374 79.9043 751.926 78.517C750.539 77.0694 749.846 75.3806 749.846 73.4505C749.846 71.5204 750.539 69.8316 751.926 68.384C753.374 66.9364 755.063 66.2126 756.993 66.2126C758.983 66.2126 760.672 66.9364 762.06 68.384C763.507 69.8316 764.231 71.5204 764.231 73.4505C764.231 75.3806 763.507 77.0694 762.06 78.517C760.672 79.9043 758.983 80.5979 756.993 80.5979ZM751.203 131.263V86.0263H762.874V131.263H751.203ZM772.45 131.263V65.2174H784.121V131.263H772.45Z" fill="#27153E"/>
<path d="M96.0065 23.2049C95.9966 30.9402 96.9546 38.6464 98.8581 46.1439C97.9168 46.3089 96.962 46.3836 96.0065 46.3671C92.9242 46.4272 89.861 45.872 86.9959 44.7341C84.1307 43.5961 81.5213 41.8981 79.3203 39.7396C77.1193 37.5811 75.3708 35.0052 74.1772 32.1629C72.9836 29.3205 72.3688 26.2686 72.3688 23.1858C72.3688 20.1029 72.9836 17.0511 74.1772 14.2087C75.3708 11.3663 77.1193 8.79048 79.3203 6.63194C81.5213 4.4734 84.1307 2.77547 86.9959 1.63748C89.861 0.499501 92.9242 -0.0556862 96.0065 0.00440546C96.962 -0.0121052 97.9168 0.0626325 98.8581 0.2276C96.9549 7.73815 95.997 15.4569 96.0065 23.2049V23.2049Z" fill="#3366FF"/>
<path opacity="0.25" d="M111.55 49.31C111.097 49.3554 110.65 49.4449 110.214 49.5772L110.17 49.5332C110.616 49.4421 111.107 49.3423 111.55 49.31Z" fill="#3366FF"/>
<path opacity="0.25" d="M118.414 48.4611C116.562 48.544 114.718 48.7402 112.89 49.0485C114.715 48.7185 116.561 48.5222 118.414 48.4611V48.4611Z" fill="#3366FF"/>
<path d="M110.214 49.5769C108.922 49.8882 107.633 50.1995 106.397 50.6018C107.638 50.1774 108.902 49.8206 110.182 49.5328L110.214 49.5769Z" fill="#3366FF"/>
<path d="M83.5338 155.544C77.4753 160 71.1524 164.231 64.6916 168.149C59.3625 163.392 54.2783 158.368 49.4585 153.095C41.8158 144.778 34.8593 135.855 28.6574 126.415C28.1229 125.613 27.5444 124.811 27.054 123.918C22.4751 116.212 20.0736 107.406 20.1056 98.442C20.1056 97.7724 20.1056 97.1057 20.1496 96.4361C20.4997 87.8087 23.0735 79.4181 27.6212 72.0783C32.169 64.7384 38.5364 58.6984 46.1058 54.5441C53.6753 50.3897 62.1899 48.262 70.8238 48.3673C79.4577 48.4726 87.9178 50.8074 95.3837 55.1452C95.4718 55.1893 95.604 55.2774 95.695 55.3244C97.3209 54.3653 99.0017 53.5024 100.729 52.74C103.68 61.6826 107.976 70.1237 113.468 77.773C113.066 77.9962 112.667 78.1724 112.294 78.3956C110.206 79.556 108.309 81.0286 106.667 82.7626C106.355 83.1179 106.044 83.4733 105.686 83.8315L105.51 84.0078C104.884 84.319 104.262 84.5951 103.639 84.8535C103.372 84.9886 103.052 85.0767 102.702 85.2118C102.235 85.371 101.76 85.5043 101.278 85.6112C100.244 85.9125 99.1856 86.1218 98.1149 86.2368C97.3163 86.3259 96.5133 86.37 95.7097 86.3689H95.3984C92.0956 86.3362 88.8462 85.5317 85.9097 84.0195L85.7305 83.8433C85.3752 83.485 85.0639 83.1297 84.7526 82.7743C83.1 81.0385 81.1915 79.5658 79.0935 78.4073C75.5641 76.455 71.5868 75.4565 67.5539 75.5103C63.5209 75.564 59.5717 76.6683 56.0957 78.714C52.6197 80.7598 49.737 83.6764 47.7321 87.1761C45.7272 90.6758 44.6694 94.6377 44.6628 98.671C44.6554 98.9839 44.6702 99.297 44.7069 99.6079C44.7136 100.429 44.7883 101.248 44.9301 102.057C45.0472 102.849 45.211 103.634 45.4205 104.407C45.8133 105.736 46.274 107.045 46.8008 108.327C49.7302 116.202 53.652 123.67 58.4715 130.553L60.2071 132.958C60.9648 133.984 61.7225 134.963 62.4802 135.895C63.1938 136.831 63.9485 137.721 64.7062 138.567L65.3758 139.369C72.5595 133.63 80.0537 128.292 87.8245 123.378C92.1444 120.617 97.6685 120.885 101.944 123.736C105.469 126.05 108.849 128.547 112.147 131.172C103.193 139.958 93.6316 148.102 83.5338 155.544V155.544Z" fill="#3366FF"/>
<path d="M168.477 114.876C168.393 115.177 168.289 115.471 168.165 115.757C167.501 117.547 166.743 119.301 165.895 121.011C165.895 121.055 165.895 121.102 165.804 121.19C164.559 123.196 163.267 125.243 161.931 127.205C161.217 128.318 160.462 129.387 159.702 130.456C159.69 130.456 159.679 130.46 159.671 130.469C159.662 130.477 159.658 130.488 159.658 130.5C153.175 139.867 145.935 148.686 138.011 156.869C133.009 162.123 127.714 167.09 122.152 171.747C113.808 178.877 104.897 185.316 95.507 191C87.5031 186.153 79.839 180.767 72.5679 174.877C72.3102 174.657 72.1194 174.368 72.0168 174.045C71.9143 173.722 71.9041 173.376 71.9875 173.047C72.0708 172.718 72.2444 172.419 72.4886 172.184C72.7328 171.948 73.038 171.786 73.3696 171.714C81.5206 169.961 89.4105 167.16 96.8432 163.383C98.3135 162.672 99.7388 161.915 101.119 161.113C102.546 160.311 103.927 159.509 105.263 158.663C106.954 157.594 108.602 156.48 110.205 155.321C111.087 154.734 111.944 154.073 112.79 153.407C113.736 152.731 114.643 152.003 115.506 151.225C116.443 150.511 117.377 149.709 118.314 148.875C118.547 148.679 118.769 148.472 118.981 148.253C119.961 147.404 120.898 146.514 121.832 145.577C122.901 144.599 123.926 143.521 124.907 142.461C126.372 140.961 127.757 139.385 129.057 137.739C129.814 136.893 130.525 136.003 131.195 135.096C132.575 133.36 133.911 131.534 135.159 129.619C135.694 128.861 136.228 128.015 136.719 127.214C136.837 127.06 136.941 126.896 137.03 126.723C137.473 126.096 137.875 125.44 138.234 124.761C139.036 123.425 139.793 122.089 140.548 120.709C140.995 119.828 141.485 118.926 141.884 117.992C142.331 117.146 142.765 116.254 143.177 115.32C144.48 112.515 145.639 109.646 146.651 106.724C153.541 110.377 160.878 113.118 168.477 114.876V114.876Z" fill="#3366FF"/>
<path d="M166.162 76.5689C164.469 73.1999 162.424 70.0202 160.06 67.0831C157.419 63.8524 154.398 60.9524 151.061 58.4461C145.766 54.4393 139.723 51.5317 133.288 49.8942C139.186 51.3026 144.766 53.8114 149.734 57.289C156.787 62.1843 162.448 68.8279 166.162 76.5689V76.5689Z" fill="#3366FF"/>
<path d="M117.967 23.2049C117.965 28.8491 115.898 34.2976 112.157 38.5231C108.415 42.7486 103.256 45.4593 97.6536 46.144C93.8554 31.0722 93.8554 15.2936 97.6536 0.221802C103.263 0.909276 108.426 3.62678 112.169 7.86116C115.911 12.0955 117.974 17.5537 117.967 23.2049V23.2049Z" fill="#3366FF"/>
<path d="M171.275 98.4419V98.7532C171.275 99.7781 171.231 100.847 171.14 101.869C171.096 102.718 171.008 103.564 170.917 104.409C170.785 105.39 170.65 106.368 170.473 107.305C170.297 108.242 170.115 109.22 169.848 110.201C169.628 111.135 169.404 112.027 169.093 112.961C169.137 113.005 169.137 113.049 169.046 113.096C168.87 113.684 168.691 114.297 168.459 114.876C160.861 113.118 153.524 110.379 146.633 106.726C146.677 106.635 146.677 106.547 146.724 106.459C146.868 106.096 146.987 105.723 147.079 105.343C147.73 103.176 148.066 100.925 148.075 98.6621C148.075 97.9955 148.028 97.3259 147.984 96.7033C147.95 96.2696 147.891 95.8381 147.807 95.4111C147.824 95.3591 147.828 95.304 147.82 95.25C147.812 95.1961 147.792 95.1447 147.76 95.0998C147.632 94.1193 147.424 93.1509 147.138 92.2042C147.097 91.9092 147.007 91.6232 146.871 91.3584C146.74 90.8661 146.561 90.388 146.336 89.9311C146.126 89.4002 145.887 88.8807 145.623 88.3746C145.355 87.8842 145.088 87.3497 144.821 86.9062C143.998 85.4255 142.98 84.0624 141.793 82.8535C141.438 82.4094 141.035 82.0056 140.592 81.6494C140.19 81.2941 139.743 80.8947 139.3 80.5364C138.679 79.9971 138.007 79.52 137.294 79.1121C136.905 78.8176 136.487 78.5637 136.046 78.3544C135.511 78.0871 135.024 77.8199 134.489 77.5967C134.159 77.4221 133.817 77.2728 133.464 77.1503C132.944 76.917 132.408 76.7207 131.861 76.563C131.644 76.4837 131.419 76.4248 131.191 76.3867C130.668 76.21 130.132 76.0755 129.588 75.9844C128.915 75.811 128.226 75.7067 127.532 75.6731C126.662 75.5449 125.783 75.485 124.904 75.494C124.665 75.4867 124.426 75.5014 124.19 75.538C123.969 75.5015 123.745 75.4867 123.52 75.494C120.039 75.4965 116.601 76.273 113.456 77.767C107.964 70.1177 103.668 61.6766 100.716 52.734C102.558 51.9118 104.447 51.1998 106.373 50.6019C107.621 50.1996 108.91 49.8883 110.19 49.577C110.626 49.4446 111.074 49.3551 111.527 49.3098L112.863 49.0425C114.699 48.7351 116.553 48.5409 118.413 48.461C119.35 48.417 120.284 48.37 121.221 48.37C122.601 48.37 123.981 48.417 125.318 48.5491C126.993 48.6782 128.66 48.9018 130.31 49.2187C131.335 49.3949 132.313 49.6181 133.294 49.8854C139.728 51.5263 145.769 54.4369 151.061 58.446C154.398 60.9541 157.419 63.8561 160.06 67.0889C162.424 70.026 164.469 73.2058 166.162 76.5747C166.879 77.9055 167.489 79.2911 167.986 80.7185C168.302 81.4422 168.569 82.1858 168.788 82.9445C169.102 83.8814 169.413 84.8593 169.636 85.8402C169.904 86.8651 170.171 87.846 170.347 88.868C170.57 89.8929 170.705 90.9237 170.838 91.9428C171.061 93.4332 171.195 94.9356 171.24 96.4419C171.275 97.1056 171.275 97.7723 171.275 98.4419Z" fill="#3366FF"/>
<path d="M110.17 49.5332C110.617 49.4421 111.107 49.354 111.551 49.31C111.098 49.3554 110.65 49.4449 110.214 49.5772C108.922 49.8885 107.633 50.1998 106.397 50.6022C107.634 50.1782 108.894 49.8213 110.17 49.5332Z" fill="#3366FF"/>
<path d="M112.887 49.0485C114.713 48.7183 116.56 48.522 118.414 48.4611C116.561 48.5439 114.716 48.7401 112.887 49.0485V49.0485Z" fill="#3366FF"/>
<path d="M166.162 76.5689C164.469 73.1999 162.424 70.0202 160.06 67.0831C157.419 63.8524 154.398 60.9524 151.061 58.4461C145.766 54.4393 139.723 51.5317 133.288 49.8942C139.186 51.3026 144.766 53.8114 149.734 57.289C156.787 62.1843 162.448 68.8279 166.162 76.5689V76.5689Z" fill="#3366FF"/>
</svg>
