<svg xmlns="http://www.w3.org/2000/svg" viewBox="0 0 229.53 50.79"><defs><style>.cls-1{fill:#284e9e;}.cls-2{fill:#e94a78;}</style></defs><g id="Camada_2" data-name="Camada 2"><g id="Camada_1-2" data-name="Camada 1"><path class="cls-1" d="M85.71,24.7H92L84.6,50.08H78.18L73.38,34.7l-4.8,15.38H62.16L54.7,24.7h6.92L66,40.28,70.59,24.7h6.2l4.62,15.64Z"/><path class="cls-1" d="M100.74,40.08q1.32,4.77,7.16,4.77a6.72,6.72,0,0,0,5.69-2.53l5.28,3q-3.77,5.43-11.07,5.43A13.66,13.66,0,0,1,97.7,47a13,13,0,0,1-3.81-9.6,13.12,13.12,0,0,1,3.76-9.57A12.91,12.91,0,0,1,107.29,24a12.11,12.11,0,0,1,9.21,3.86,13.38,13.38,0,0,1,3.63,9.54,15.22,15.22,0,0,1-.25,2.69Zm-.1-5.07h13a6.18,6.18,0,0,0-2.31-3.86,6.61,6.61,0,0,0-4-1.27,6.94,6.94,0,0,0-4.37,1.34A6.43,6.43,0,0,0,100.64,35Z"/><path class="cls-1" d="M138.82,24a9.18,9.18,0,0,1,6.87,2.79c1.82,1.86,2.72,4.44,2.72,7.72V50.08h-6.55V35.31a5.16,5.16,0,0,0-1.37-3.88,5,5,0,0,0-3.65-1.35,5.4,5.4,0,0,0-4.06,1.57,6.55,6.55,0,0,0-1.53,4.73v13.7H124.7V24.7h6.55v2.84Q133.64,24,138.82,24Z"/><path class="cls-1" d="M173.23,14.55h6.55V50.08h-6.55v-3a9.79,9.79,0,0,1-8.22,3.7,11.55,11.55,0,0,1-8.76-3.88,13.42,13.42,0,0,1-3.63-9.52,13.42,13.42,0,0,1,3.63-9.52A11.55,11.55,0,0,1,165,24a9.77,9.77,0,0,1,8.22,3.71Zm-12,28a6.84,6.84,0,0,0,5,2,6.77,6.77,0,0,0,5-2,7,7,0,0,0,2-5.15,7.05,7.05,0,0,0-2-5.15,6.77,6.77,0,0,0-5-2,6.84,6.84,0,0,0-5,2,7,7,0,0,0-2,5.15A7,7,0,0,0,161.18,42.54Z"/><path class="cls-1" d="M191.31,40.08c.88,3.18,3.26,4.77,7.16,4.77a6.7,6.7,0,0,0,5.68-2.53l5.28,3q-3.75,5.43-11.07,5.43a13.69,13.69,0,0,1-10.1-3.8,13,13,0,0,1-3.81-9.6,13.16,13.16,0,0,1,3.76-9.57A13,13,0,0,1,197.86,24a12.11,12.11,0,0,1,9.21,3.86,13.38,13.38,0,0,1,3.63,9.54,15.22,15.22,0,0,1-.25,2.69Zm-.1-5.07h12.94a6.09,6.09,0,0,0-2.31-3.86,6.58,6.58,0,0,0-4-1.27,6.94,6.94,0,0,0-4.37,1.34A6.43,6.43,0,0,0,191.21,35Z"/><path class="cls-1" d="M221.82,29.07a6.8,6.8,0,0,1,3-3.66,9.22,9.22,0,0,1,4.69-1.22V31.5a7.73,7.73,0,0,0-5.35,1.22q-2.35,1.58-2.36,5.23V50.08h-6.55V24.7h6.55Z"/><path class="cls-2" d="M44.77,16.84A17,17,0,0,1,23.69,33.33a12.73,12.73,0,0,0-12.21-12.1,16.92,16.92,0,1,1,33.29-4.39Z"/><path class="cls-1" d="M22,33.87a11.07,11.07,0,0,1-.52,3.42,7.61,7.61,0,0,0-7,7.08,10.8,10.8,0,0,1-3.42.56,11,11,0,1,1-.11-22A9.83,9.83,0,0,1,12,23,11,11,0,0,1,22,32.79,9.64,9.64,0,0,1,22,33.87Z"/><path class="cls-1" d="M28,44.85A5.92,5.92,0,0,1,26.27,49a5.92,5.92,0,0,1-10.09-3.52c0-.2,0-.41,0-.61s0-.21,0-.31a5.69,5.69,0,0,1,.13-1h0a5.9,5.9,0,0,1,4.41-4.46h0a5.7,5.7,0,0,1,1-.15H22c.2,0,.41,0,.61,0A5.91,5.91,0,0,1,28,44.85Z"/></g></g></svg>