<svg xmlns="http://www.w3.org/2000/svg" viewBox="0 0 1867.47 413.25"><defs><style>.cls-1{fill:#284e9e;}.cls-2{fill:#e94a78;}</style></defs><g id="Camada_2" data-name="Camada 2"><g id="Camada_1-2" data-name="Camada 1"><path class="cls-1" d="M697.37,201H748.5L688.28,407.47H636.06L597,282.32,557.93,407.47H505.71L445,201h56.34l35.35,126.8L574.31,201h50.43L662.35,328.2Z"/><path class="cls-1" d="M819.62,326.1q10.74,38.83,58.24,38.82,30.55,0,46.26-20.64l43,24.78q-30.57,44.19-90,44.19-51.21,0-82.19-31t-31-78.06q0-46.66,30.57-77.86t78.47-31.18q45.44,0,75,31.39t29.53,77.65a124.4,124.4,0,0,1-2.07,21.89Zm-.82-41.3H924.12q-4.54-21.07-18.8-31.39a53.88,53.88,0,0,0-32.42-10.33q-21.48,0-35.52,10.95T818.8,284.8Z"/><path class="cls-1" d="M1129.39,195.17q33.87,0,56,22.72t22.1,62.78v126.8h-53.28V287.28q0-20.65-11.16-31.6t-29.74-11q-20.65,0-33,12.81T1067.85,296V407.47h-53.28V201h53.28v23.13Q1087.26,195.18,1129.39,195.17Z"/><path class="cls-1" d="M1409.42,118.35h53.28V407.47h-53.28V383.1q-23.54,30.15-66.91,30.15-41.73,0-71.25-31.6t-29.53-77.44q0-45.84,29.53-77.44t71.25-31.6q43.37,0,66.91,30.15Zm-98.09,227.78q16.31,16.32,41.09,16.32t40.89-16.32q16.11-16.31,16.11-41.92t-16.11-41.92Q1377.2,246,1352.42,246t-41.09,16.32Q1295,278.61,1295,304.21T1311.33,346.13Z"/><path class="cls-1" d="M1556.45,326.1q10.74,38.83,58.24,38.82,30.57,0,46.26-20.64l43,24.78q-30.57,44.19-90.05,44.19-51.21,0-82.19-31t-31-78.06q0-46.66,30.57-77.86t78.47-31.18q45.43,0,75,31.39t29.53,77.65a125.3,125.3,0,0,1-2.06,21.89Zm-.83-41.3H1661q-4.54-21.07-18.79-31.39a53.91,53.91,0,0,0-32.43-10.33q-21.48,0-35.51,10.95T1555.62,284.8Z"/><path class="cls-1" d="M1804.68,236.47q7.44-19.82,24.58-29.73a74.9,74.9,0,0,1,38.21-9.92V256.3q-24.37-2.88-43.58,9.91t-19.21,42.54v98.72H1751.4V201h53.28Z"/><path class="cls-2" d="M364.23,137A137.73,137.73,0,0,1,192.74,271.14,103.44,103.44,0,0,0,93.4,172.76,137.69,137.69,0,1,1,364.23,137Z"/><path class="cls-1" d="M179.09,275.57a89.59,89.59,0,0,1-4.27,27.84,62,62,0,0,0-57,57.61A89.57,89.57,0,1,1,89.1,186.45a85.92,85.92,0,0,1,8.83.4,89.54,89.54,0,0,1,80.68,79.92A85.24,85.24,0,0,1,179.09,275.57Z"/><path class="cls-1" d="M227.65,364.89a48.14,48.14,0,0,1-96,5.45c-.16-1.64-.25-3.29-.26-5,0-.85,0-1.69,0-2.51a46.57,46.57,0,0,1,1.12-8.31h0a48,48,0,0,1,35.89-36.24v0a47.26,47.26,0,0,1,8.32-1.21c.82,0,1.65-.06,2.49-.07,1.69,0,3.34.07,5,.22A48.17,48.17,0,0,1,227.65,364.89Z"/></g></g></svg>